HIERARCHY
ROOT SpineBase
{
  OFFSET 0.000000 0.000000 0.000000
  CHANNELS 6 Xposition Yposition Zposition Zrotation Xrotation Yrotation
  JOINT SpineMid
  {
    OFFSET -0.000000 25.917301 0.000000
    CHANNELS 3 Zrotation Xrotation Yrotation
    JOINT SpineShoulder
    {
      OFFSET 0.000030 19.442669 -0.592580
      CHANNELS 3 Zrotation Xrotation Yrotation
      JOINT Neck
      {
        OFFSET -0.044697 6.525186 -0.507842
        CHANNELS 3 Zrotation Xrotation Yrotation
        JOINT Head
        {
          OFFSET -2.056074 12.799019 -1.477783
          CHANNELS 3 Zrotation Xrotation Yrotation
          End Site
          {
            OFFSET 0 0 0
          }
        }
      }
      JOINT ShoulderLeft
      {
        OFFSET -13.519206 -2.093341 6.502422
        CHANNELS 3 Zrotation Xrotation Yrotation
        JOINT ElbowLeft
        {
          OFFSET -4.366543 -19.288484 -0.436369
          CHANNELS 3 Zrotation Xrotation Yrotation
          JOINT WristLeft
          {
            OFFSET -5.071378 -12.613748 -15.564716
            CHANNELS 3 Zrotation Xrotation Yrotation
            JOINT HandLeft
            {
              OFFSET -1.926662 -4.337761 -5.323450
              CHANNELS 3 Zrotation Xrotation Yrotation
              JOINT HandTipLeft
              {
                OFFSET -2.513466 -5.262949 -5.453285
                CHANNELS 3 Zrotation Xrotation Yrotation
                End Site
                {
                  OFFSET 0 0 0
                }
              }
              JOINT ThumbLeft
              {
                OFFSET -3.057711 3.724563 -0.034530
                CHANNELS 3 Zrotation Xrotation Yrotation
                End Site
                {
                  OFFSET 0 0 0
                }
              }
            }
          }
        }
      }
      JOINT ShoulderRight
      {
        OFFSET 11.047957 -0.121174 -9.819521
        CHANNELS 3 Zrotation Xrotation Yrotation
        JOINT ElbowRight
        {
          OFFSET 5.054026 -18.221378 -5.639250
          CHANNELS 3 Zrotation Xrotation Yrotation
          JOINT WristRight
          {
            OFFSET -14.050633 -11.278577 -9.526359
            CHANNELS 3 Zrotation Xrotation Yrotation
            JOINT HandRight
            {
              OFFSET -3.746353 -2.732245 -2.824895
              CHANNELS 3 Zrotation Xrotation Yrotation
              JOINT HandTipRight
              {
                OFFSET -6.323555 -3.121690 -4.283281
                CHANNELS 3 Zrotation Xrotation Yrotation
                End Site
                {
                  OFFSET 0 0 0
                }
              }
              JOINT ThumbRight
              {
                OFFSET 0.959526 -2.669389 -3.999007
                CHANNELS 3 Zrotation Xrotation Yrotation
                End Site
                {
                  OFFSET 0 0 0
                }
              }
            }
          }
        }
      }
    }
  }
  JOINT HipLeft
  {
    OFFSET -6.240699 1.114617 0.586975
    CHANNELS 3 Zrotation Xrotation Yrotation
    JOINT KneeLeft
    {
      OFFSET -23.990025 3.579878 -15.112592
      CHANNELS 3 Zrotation Xrotation Yrotation
      JOINT AnkleLeft
      {
        OFFSET 1.295017 -34.363737 -6.092415
        CHANNELS 3 Zrotation Xrotation Yrotation
        JOINT FootLeft
        {
          OFFSET -3.898775 -4.186337 -7.725347
          CHANNELS 3 Zrotation Xrotation Yrotation
          End Site
          {
            OFFSET 0 0 0
          }
        }
      }
    }
  }
  JOINT HipRight
  {
    OFFSET 5.435612 1.447577 -6.453452
    CHANNELS 3 Zrotation Xrotation Yrotation
    JOINT KneeRight
    {
      OFFSET -13.154648 7.516163 -25.525367
      CHANNELS 3 Zrotation Xrotation Yrotation
      JOINT AnkleRight
      {
        OFFSET 6.244244 -40.979452 8.014922
        CHANNELS 3 Zrotation Xrotation Yrotation
        JOINT FootRight
        {
          OFFSET -5.074163 -1.995649 -8.339233
          CHANNELS 3 Zrotation Xrotation Yrotation
          End Site
          {
            OFFSET 0 0 0
          }
        }
      }
    }
  }
}
MOTION
Frames: 8
Frame Time: 0.033333
52.512745 40.130870 375.837743 0.000000 0.000000 31.088575 -0.000000 0.000000 -31.088575 -0.000000 0.000000 0.000000 -0.000000 0.000000 0.000000 0.000000 0.000000 0.000000 -0.000000 0.000000 0.000000 -0.000000 0.000000 0.000000 -0.000000 0.000000 0.000000 -0.000000 0.000000 0.000000 0.000000 0.000000 0.000000 0.000000 0.000000 0.000000 -0.000000 0.000000 0.000000 -0.000000 0.000000 0.000000 -0.000000 0.000000 0.000000 -0.000000 0.000000 0.000000 0.000000 0.000000 0.000000 0.000000 0.000000 0.000000 -0.000000 0.000000 -31.088575 -0.000000 0.000000 0.000000 -0.000000 0.000000 0.000000 0.000000 0.000000 0.000000 -0.000000 0.000000 -31.088575 -0.000000 0.000000 0.000000 -0.000000 0.000000 0.000000 0.000000 0.000000 0.000000
52.548735 40.251982 375.765229 -0.119828 0.002074 31.002482 0.101641 -0.063498 -31.002424 -0.000000 0.000000 0.000000 -0.836730 0.550158 -0.004221 0.000000 0.000000 0.000000 0.073714 -1.131049 0.255210 -0.068689 1.131365 -0.253804 2.483060 0.402343 -3.251619 -7.368379 4.354469 5.571790 0.000000 0.000000 0.000000 0.000000 0.000000 0.000000 -0.000000 0.000000 0.000000 -0.000000 0.000000 0.000000 0.207407 -0.643592 0.674789 -2.274782 2.993377 -2.321282 0.000000 0.000000 0.000000 0.000000 0.000000 0.000000 0.101641 -0.063498 -31.002424 -0.000000 0.000000 0.000000 -0.000000 0.000000 0.000000 0.000000 0.000000 0.000000 0.101641 -0.063498 -31.002424 -0.000000 0.000000 0.000000 1.117559 -4.639043 8.887131 0.000000 0.000000 0.000000
52.570140 40.348528 375.689516 -0.225580 0.035524 30.905062 0.175307 -0.146342 -30.904768 -0.000000 0.000000 0.000000 -1.272667 1.069898 0.036917 0.000000 0.000000 0.000000 0.218239 -2.109622 0.477115 -0.200805 2.111352 -0.469396 5.630130 0.342791 -7.205746 -16.286743 7.804963 12.212202 0.000000 0.000000 0.000000 0.000000 0.000000 0.000000 -0.000000 0.000000 0.000000 -0.000000 0.000000 0.000000 0.409785 -1.188165 1.228948 -3.912389 5.552761 -4.360492 0.000000 0.000000 0.000000 0.000000 0.000000 0.000000 0.175307 -0.146342 -30.904768 0.221857 -1.079616 -0.078055 -0.223367 1.079305 0.082249 0.000000 0.000000 0.000000 0.078185 -0.999787 -31.064448 -1.204637 0.471521 -0.042440 4.430068 -9.822637 20.591104 0.000000 0.000000 0.000000
52.576958 40.420507 375.610603 -0.317441 0.100176 30.796266 0.221393 -0.248575 -30.795508 -0.000000 0.000000 0.000000 -1.345883 1.580146 0.117421 0.000000 0.000000 0.000000 0.432110 -2.933207 0.666402 -0.398505 2.937957 -0.645119 9.263628 -0.554663 -11.548741 -26.302077 10.026836 19.477037 0.000000 0.000000 0.000000 0.000000 0.000000 0.000000 -0.000000 0.000000 0.000000 -0.636702 0.584761 -0.185369 1.246726 -2.210424 1.854910 -4.954590 7.617829 -6.184257 0.000000 0.000000 0.000000 0.000000 0.000000 0.000000 0.221393 -0.248575 -30.795508 0.341872 -1.456933 -0.111411 -0.344816 1.456239 0.120140 0.000000 0.000000 0.000000 0.109436 -1.307946 -30.968518 -1.665997 0.714130 -0.083125 8.159026 -14.507506 32.011625 0.000000 0.000000 0.000000
52.569190 40.467920 375.528491 -0.395569 0.195911 30.675939 0.240271 -0.370305 -30.674487 -0.000000 0.000000 0.000000 -1.065326 2.100960 0.234918 0.000000 0.000000 0.000000 0.713992 -3.600074 0.823274 -1.107736 4.826465 -0.668585 13.233125 -3.783126 -15.200746 -36.318147 11.357238 26.513414 0.000000 0.000000 0.000000 0.000000 0.000000 0.000000 -0.000000 0.000000 0.000000 -0.610920 0.666260 -0.306911 1.407077 -2.624676 2.277711 -5.434951 9.147820 -7.845383 0.000000 0.000000 0.000000 0.000000 0.000000 0.000000 0.240271 -0.370305 -30.674487 0.468449 -1.727919 -0.141467 -0.952404 2.722880 0.125082 0.000000 0.000000 0.000000 0.135581 -1.488281 -30.816060 -2.032756 0.963555 -0.139859 10.607459 -16.801259 38.254067 0.000000 0.000000 0.000000
52.546836 40.490766 375.443180 -0.460097 0.322662 30.543822 0.232290 -0.511704 -30.541489 -0.000000 0.000000 0.000000 -0.412723 2.653843 0.389570 0.000000 0.000000 0.000000 1.062688 -4.109101 0.947439 -1.825015 6.231198 -0.590518 16.023964 -7.683267 -17.026417 -44.759160 12.978277 32.373149 0.000000 0.000000 0.000000 0.000000 0.000000 0.000000 -0.000000 0.000000 0.000000 -0.466743 0.690776 -0.458853 1.434244 -2.875131 2.595797 -5.376753 10.112648 -9.380717 0.000000 0.000000 0.000000 0.000000 0.000000 0.000000 0.232290 -0.511704 -30.541489 0.601976 -1.893470 -0.168602 -1.711653 3.992278 0.302229 0.000000 0.000000 0.000000 0.156029 -1.540778 -30.606712 -2.304178 1.221414 -0.214056 9.978254 -16.279074 35.999276 0.000000 0.000000 0.000000
52.495227 40.527507 375.337300 -0.590653 0.555229 30.381273 0.228768 -0.777694 -30.376858 -0.000000 0.000000 0.000000 0.780874 3.497912 0.629932 0.000000 0.000000 0.000000 1.701879 -5.013230 1.176707 -3.275984 8.873764 -0.259954 16.292283 -13.088260 -14.352495 -50.270552 18.235519 36.415742 0.000000 0.000000 0.000000 0.000000 0.000000 0.000000 1.394191 -0.635944 -0.599159 -1.456497 1.264019 -0.141016 0.957134 -2.815570 2.944852 -3.491785 9.331470 -10.825524 0.000000 0.000000 0.000000 0.000000 0.000000 0.000000 0.228768 -0.777694 -30.376858 0.812711 -2.098065 -0.208905 -2.842969 6.468080 0.017025 0.000000 0.000000 0.000000 0.219755 -1.584628 -30.247515 -2.774119 1.842847 -0.367524 4.805536 -9.218474 17.006283 0.000000 0.000000 0.000000
52.438169 40.512555 375.228506 -0.719514 0.753484 30.175077 0.243344 -1.013015 -30.168195 -0.000000 0.000000 0.000000 2.584260 4.311796 0.894745 0.000000 0.000000 0.000000 2.080476 -5.140655 1.217052 -4.204932 11.267734 -0.341491 16.918083 -24.869899 -7.505988 -60.491336 28.136220 46.547854 0.000000 0.000000 0.000000 0.000000 0.000000 0.000000 2.006768 -0.974033 -0.872282 -2.065351 1.691201 0.006061 1.189031 -3.732605 4.053871 -2.295358 10.192579 -13.599298 0.000000 0.000000 0.000000 0.000000 0.000000 0.000000 0.635849 -1.584521 -29.534429 0.360477 -1.856354 -0.870201 -3.340325 7.084795 0.103154 0.000000 0.000000 0.000000 0.243344 -1.013015 -30.168195 -2.702152 1.910809 -0.193666 2.582299 -2.069179 1.249304 0.000000 0.000000 0.000000
